<svg xmlns="http://www.w3.org/2000/svg" viewBox="0 0 64 64"><path fill="#fff" d="M53.42,52.82H10.58a8,8,0,0,1-8-8V19.18a8,8,0,0,1,8-8H53.42a8,8,0,0,1,8,8V44.82A8,8,0,0,1,53.42,52.82ZM10.58,13.18a6,6,0,0,0-6,6V44.82a6,6,0,0,0,6,6H53.42a6,6,0,0,0,6-6V19.18a6,6,0,0,0-6-6Z"/><path fill="#fff" d="M32,37.58A8,8,0,0,1,27.18,36L3.82,18.31A1,1,0,1,1,5,16.72L28.38,34.37a6,6,0,0,0,7.24,0L59,16.72a1,1,0,1,1,1.21,1.59L36.82,36A8,8,0,0,1,32,37.58Z"/><path fill="#fff" d="M4.17 48.64a1 1 0 0 1-.66-1.74L21.9 30.49A1 1 0 0 1 23.23 32L4.84 48.39A1 1 0 0 1 4.17 48.64zM59.83 48.64a1 1 0 0 1-.67-.25L40.77 32a1 1 0 1 1 1.33-1.49L60.49 46.9a1 1 0 0 1 .08 1.41A1 1 0 0 1 59.83 48.64z"/></svg>