<svg xmlns="http://www.w3.org/2000/svg" data-name="Layer 1" viewBox="0 0 512 512" x="0px" y="0px"><title>N_F08_6Artboard 1 copy 12</title><path d="M408.71,129.57a15.66,15.66,0,0,0-28.32-13.15c-10.11,17.59-23.46,32.32-37.21,44.35a33.35,33.35,0,1,0-62.81,5.5c-4.88.31-14.58.59-33.19.17A37.3,37.3,0,1,0,199.64,161c-27.48-9.41-51.22-30.77-64.53-44.65a19,19,0,0,0-29.57,23.77c13.68,20.27,41.41,55.72,75.18,68.73V410.46a3.48,3.48,0,1,0,6.95,0v-204a3.47,3.47,0,0,0-2.32-3.27c-34.17-12-63.17-50.8-74-66.92a12.09,12.09,0,0,1,18.8-15.07c17.77,18.54,53.52,49.88,93.18,51.46,41,1.63,55.86.85,61,.27a33.34,33.34,0,0,0,24.2,13.05c-6,3.65-11.61,6.68-16.34,9.1a43.18,43.18,0,0,0-23.69,38.62v20.85a26.39,26.39,0,0,0-20.47,38c-11.53-7.23-20.55-18.05-25.89-25.51a15.12,15.12,0,0,0-25.86,15.47c5.29,10.82,16.21,30,31,39.42v88.53a3.48,3.48,0,1,0,7,0V320a3.48,3.48,0,0,0-1.75-3c-14.06-8.11-24.81-27-30-37.51a8.17,8.17,0,0,1,14-8.37c9,12.56,27.76,33.94,52.5,35.93,1.57.13,3.14.25,4.7.51L303,312.35a26.8,26.8,0,0,0,8,7.13L299.26,329a22.18,22.18,0,0,0-8.18,17.24v64.22a3.48,3.48,0,1,0,6.95,0V346.24a15.23,15.23,0,0,1,5.63-11.85l14.67-12a26.43,26.43,0,0,0,28.1-11.32c4.71-2.35,25.77-13.25,39.26-27a6.49,6.49,0,0,1,4.66-2h.08a6.46,6.46,0,0,1,5.12,10.29c-6.24,8.37-19.42,23.91-37.52,33.92a3.49,3.49,0,0,0-1.8,3v81.11a3.48,3.48,0,1,0,6.95,0V331.38c18.32-10.65,31.57-26.29,37.94-34.83a13.41,13.41,0,0,0-10.61-21.4,13.58,13.58,0,0,0-9.78,4.05c-7.83,8-18.7,15.12-26.85,19.89v-94.5C383.9,186.62,401.08,150,408.71,129.57ZM226.64,105a30.33,30.33,0,1,1-30.33,30.33A30.36,30.36,0,0,1,226.64,105Zm57.78,47.66a26.41,26.41,0,1,1,26.4,26.41A26.43,26.43,0,0,1,284.42,152.67Zm-12.8,108.6a19.46,19.46,0,1,1-19.46,19.46A19.48,19.48,0,0,1,271.62,261.27Zm14.81,41.32a26.4,26.4,0,0,0-11-48V233.66a36.27,36.27,0,0,1,19.91-32.43c23.42-11.95,66.4-38.41,91.09-81.35a8.88,8.88,0,0,1,11.73-3.52,8.77,8.77,0,0,1,4.05,10.78c-6,16.08-23.22,55.33-53.51,72.43a3.46,3.46,0,0,0-1.76,3v80.22A26.52,26.52,0,0,0,299,304.66Zm37.82,13.54a19.6,19.6,0,1,1,16.91-9.74,3.91,3.91,0,0,0-.26.44A19.58,19.58,0,0,1,324.25,316.13Z"/></svg>