<svg xmlns="http://www.w3.org/2000/svg" xmlns:xlink="http://www.w3.org/1999/xlink" version="1.1" x="0px" y="0px" viewBox="0 0 100 100" style="enable-background:new 0 0 100 100;" xml:space="preserve"><path d="M54.1,27.4c-0.3,0-0.6-0.1-0.9-0.3c-0.7-0.5-0.8-1.4-0.3-2.1l2.8-3.7l-5.5,0.6c-0.1,0-0.2,0-0.3,0l-5.5-0.6l2.8,3.7  c0.5,0.7,0.4,1.6-0.3,2.1c-0.7,0.5-1.6,0.4-2.1-0.3l-4.9-6.5c-0.4-0.5-0.4-1.1-0.1-1.6c0.3-0.5,0.9-0.8,1.5-0.8l8.8,1l8.8-1  c0.6-0.1,1.2,0.2,1.5,0.8s0.3,1.2-0.1,1.6l-4.9,6.5C55,27.2,54.5,27.4,54.1,27.4z"/><path d="M50,79c-10.2,0-21.7,0-21.7-14.9C28.3,50.2,38,29,50,29s21.7,21.2,21.7,35.1C71.7,79,60.2,79,50,79z M50,32  c-4.4,0-9.1,4.1-12.9,11.1c-3.5,6.5-5.7,14.7-5.7,20.9C31.3,75.4,38.4,76,50,76s18.7-0.6,18.7-11.9c0-6.3-2.2-14.5-5.7-20.9  C59.1,36.1,54.4,32,50,32z"/><g><path d="M59,60.5H41c-0.8,0-1.5-0.7-1.5-1.5s0.7-1.5,1.5-1.5h18c0.8,0,1.5,0.7,1.5,1.5S59.8,60.5,59,60.5z"/></g><g><path d="M59,52.5H41c-0.8,0-1.5-0.7-1.5-1.5c0-0.8,0.7-1.5,1.5-1.5h18c0.8,0,1.5,0.7,1.5,1.5C60.5,51.8,59.8,52.5,59,52.5z"/></g></svg>