<svg xmlns="http://www.w3.org/2000/svg" data-name="Layer 1" viewBox="0 0 512 512" x="0px" y="0px"><path d="M410.7,455.57l-2-28.26A49.5,49.5,0,0,0,372.09,383l-39.87-10.61a23.14,23.14,0,0,1-16.7-18l-2-10.6c0-.14-.07-.29-.1-.43l15.62-15.62c18.2-3.07,51.81-9,72.85-14.37a5.75,5.75,0,0,0,4.3-5.24c.33-6.26,7.42-154.08-58.87-224C325,60.59,296.86,48.66,263.61,48.66S202.2,60.59,179.9,84.12c-66.3,69.93-59.21,217.75-58.87,224a5.71,5.71,0,0,0,3.1,4.78c.36.18,8.09,4.1,23.24,8.54L144.7,345.5,103,387.24a5.72,5.72,0,1,0,8.09,8.09l43.16-43.16a5.69,5.69,0,0,0,1.64-3.41L159,320.59a34.26,34.26,0,0,1,9.78-20.33l48.36-48a20.73,20.73,0,0,1,0,29.28L198.9,299.7a5.73,5.73,0,1,0,8.1,8.1l18.21-18.22a29.7,29.7,0,0,0,2-2.21,6.32,6.32,0,0,0,1-.79L274.78,240a7,7,0,0,1,9.65,0,6.84,6.84,0,0,1,0,9.66l-40.92,40.91a5.72,5.72,0,0,0,8.09,8.1l6.78-6.78h0l24.39-24.39,9.75-9.74h0L305,245.34a7,7,0,0,1,9.66,0,6.84,6.84,0,0,1,0,9.66l-6.79,6.79-39.77,39.77-6.79,6.78a5.72,5.72,0,0,0,8.09,8.1l6.79-6.79,39.77-39.77a7,7,0,0,1,9.66,0,6.83,6.83,0,0,1,0,9.66l-12.22,12.22h0L279,326.09a5.73,5.73,0,0,0,8.1,8.1l34.33-34.34a7,7,0,0,1,9.65,0,6.82,6.82,0,0,1,0,9.65l-67.33,67.34A103.56,103.56,0,0,1,230,399.4l-10.05,4.16a5.72,5.72,0,0,0-1.86,1.24l-48.77,48.77a5.72,5.72,0,1,0,8.09,8.09l48-48,9-3.72a114.82,114.82,0,0,0,37.51-25l31.79-31.79.63,3.35a34.66,34.66,0,0,0,25,26.94l39.87,10.61a38,38,0,0,1,28.15,34.07l2,28.25a5.73,5.73,0,0,0,5.71,5.32h.41A5.72,5.72,0,0,0,410.7,455.57Zm-77-193.78a17.59,17.59,0,0,0-7.16-4.29,18.26,18.26,0,0,0-29.64-20.25l-.45.45a18.26,18.26,0,0,0-29.73-5.77l-32.19,32.19a32,32,0,0,0-9.28-20,11.94,11.94,0,0,0-16.5,0l-48,48.05a45.64,45.64,0,0,0-11.06,18,165.85,165.85,0,0,1-17.28-6.09c-.65-22.69-1.65-151.43,55.89-212.1,20.05-21.15,45.42-31.87,75.39-31.87S319,70.83,339,92c56.91,60,56.55,186.63,55.9,211.32C379.4,307,358.59,311,342,313.89a18.21,18.21,0,0,0-2.85-22.13,17.49,17.49,0,0,0-5.83-3.82l.31-.31A18.3,18.3,0,0,0,333.66,261.79Z"/></svg>