<svg xmlns="http://www.w3.org/2000/svg" xmlns:xlink="http://www.w3.org/1999/xlink" version="1.1" x="0px" y="0px" viewBox="0 0 100 100" style="enable-background:new 0 0 100 100;" xml:space="preserve"><g><path d="M88.6064911,72.9628906c-0.4111328-4.7075195-3.3496094-8.8291016-7.6708984-10.7568359l-9.9691162-4.4311523   c-0.0267334-0.1152344-0.0665283-0.2278442-0.1343994-0.3295898l-2-3c-0.007019-0.0105591-0.0194092-0.0153198-0.0267944-0.0255737   c-0.0761719-0.1057129-0.1677856-0.1959839-0.2767334-0.2640991c-0.0189209-0.0119019-0.0396729-0.0176392-0.0593872-0.0281982   c-0.0980835-0.0526733-0.2036133-0.086792-0.315918-0.1044922c-0.0192871-0.0030518-0.0350342-0.0161743-0.0545654-0.0180664   c-0.0125732-0.0012817-0.0238647,0.005249-0.036377,0.0044556C68.0410614,54.0079956,68.0215302,54,68.0000458,54h-9.9999962   c-0.0214233,0-0.0410767,0.0079956-0.0622559,0.0093384c-0.0126343,0.0007935-0.0236816-0.0057373-0.036377-0.0044556   c-0.0195313,0.0018921-0.0352783,0.0150146-0.0545654,0.0180664c-0.1123047,0.0177002-0.2178345,0.0518188-0.315918,0.1044922   c-0.0197144,0.0105591-0.0404663,0.0162964-0.0593872,0.0281982c-0.1089478,0.0681152-0.2005615,0.1583862-0.2767334,0.2640991   c-0.0073853,0.0102539-0.0197754,0.0150146-0.0267944,0.0255737l-1.8564453,2.784668h-3.3115234v-3.3071289   c0-1.1104126-0.4040527-2.1184082-1.0515137-2.9228516h7.3933105c1.3433838,0.954895,3.1521606,2,4.6582031,2   c1.5070763,0,3.31744-1.0465088,4.6586266-2h18.8413696c0.3974609,0,0.7578125-0.2358398,0.9169922-0.6005859   c0.1582031-0.3642578,0.0859375-0.7885742-0.1845703-1.0800781c-0.0615234-0.065918-6.1357422-6.8027344-6.2324219-23.9091797   c0-2.1552734-0.4238281-4.2363281-1.2578125-6.1782227C77.3779755,13.6235352,71.870163,10,65.7100067,10h-5.4199181   c-3.0029297,0-5.9169922,0.8691406-8.4306641,2.5151367c-2.5087891,1.6542969-4.4462891,3.9770508-5.5986328,6.7104492   c-0.8369141,1.9482422-1.2607422,4.0292969-1.2607422,6.1787109c-0.0658569,11.3187866-2.7575684,18.0992432-4.5457764,21.3657227   H24.5400887c-0.5527344,0-1,0.4477539-1,1v1.4609375h-0.8476563c-2.5869141,0-4.6923828,2.1049805-4.6923828,4.6918945v3.3071289   h-4.54004c-1.9082031,0-3.4599609,1.5522461-3.4599609,3.4599609v5.5400391v20.9199219   C10.0000486,88.7216797,11.2783689,90,12.849658,90h44.3007813h31.8496056c0.2802734,0,0.5478516-0.1176758,0.7373047-0.3242188   s0.2832031-0.4833984,0.2587891-0.7626953L88.6064911,72.9628906z M67.8447723,56.5698242l0.9804688,1.4707031l-2.8466797,4.980957   L64.25914,60.1549683l1.7926636-1.7926636L67.8447723,56.5698242z M65.5859833,56l-2.5859337,2.5859375L60.4141121,56H65.5859833z    M68.3195038,47.927002c-0.1210938,0.1073608-0.2461548,0.2080688-0.3691406,0.312439   c-0.1349487,0.1144409-0.2680664,0.2321777-0.4049072,0.3426514c-0.2620239,0.2114258-0.5272217,0.4151001-0.7944336,0.6098022   c-0.0003052,0.0002441-0.0004883,0.0005493-0.0007935,0.0007935c-0.0007324,0.0005493-0.0014038,0.0010986-0.0021362,0.0016479   C64.9355927,50.5253906,63.6230965,51,63.0000496,51s-1.9355469-0.4746094-3.7509766-1.8081055   c-2.1367188-1.5566406-4.1503906-3.6923828-5.3857422-5.7138672c-0.0302734-0.0488281-0.0644531-0.0952148-0.1025391-0.1386719   c-0.5244141-0.5947266-0.8603516-1.3579102-0.9462891-2.1484375c-0.0048828-0.0458984-0.0136719-0.0917969-0.0244141-0.1367188   c-0.4833984-1.9086914-0.8642578-7.1518555-1.0039063-9.2827148c1.1005859-0.1796875,2.2109375-0.4731445,3.3056641-0.8754883   c0.5039063-0.1894531,0.9990234-0.3994141,1.4794922-0.6240234c0.1611328-0.0771484,0.3125-0.1538086,0.4638672-0.2304688   l0.2119141-0.1069336c0.2148438-0.1074219,0.4296875-0.2294922,0.6386719-0.3481445l0.1259766-0.0712891   c0.5283203-0.3066406,1.0273438-0.6254883,1.4638672-0.9335938c0.3183594-0.2128906,0.6171875-0.4360352,0.8945313-0.6494141   c1.1650391-0.8984375,2.0488281-1.7675781,2.6279297-2.3935547c1.5908165,1.7275391,5.4863243,5.2973633,11.2148399,6.2280273   c-0.1582031,2.484375-0.5458984,7.487793-1.0029297,9.2875977c-0.0107422,0.0449219-0.0195313,0.0908203-0.0244141,0.1367188   c-0.0859375,0.7905273-0.421875,1.5537109-0.9462891,2.1484375c-0.0380859,0.043457-0.0722656,0.0898438-0.1025391,0.1386719   c-0.1544189,0.2525024-0.3210449,0.5068359-0.4984131,0.7615967C70.7511444,45.5134888,69.5920868,46.7989502,68.3195038,47.927002   z M47.0000496,25.4101563c0-1.8828125,0.3691406-3.6977539,1.1015625-5.4013672   c1-2.3740234,2.6806641-4.3876953,4.8564453-5.8222656C55.1416512,12.7563477,57.677784,12,60.2900887,12h5.4199181   c5.3535156,0,10.1386719,3.1435547,12.1914063,8.0146484c0.7294922,1.6977539,1.0986328,3.5126953,1.0986328,5.4013672   C79.0742645,38.644043,82.5928192,45.9658203,84.5293427,49H70.1094208   c0.0430908-0.0402222,0.0825195-0.0837402,0.1252441-0.1242676c0.2885742-0.2732544,0.5705566-0.5518799,0.8441162-0.8369751   c0.0368652-0.0383911,0.0758057-0.0750732,0.1121826-0.1136475c0.3056641-0.3225098,0.597168-0.6516113,0.8789063-0.9837646   c0.0782471-0.0922852,0.1518555-0.1846313,0.2280273-0.2774048c0.2081299-0.2533569,0.4073486-0.5071411,0.5983887-0.7625732   c0.0737305-0.0985107,0.1478271-0.196106,0.21875-0.2947388c0.2437744-0.338623,0.4765625-0.677124,0.6848145-1.0133667   c0.7441406-0.8730469,1.2265625-1.9731445,1.3662109-3.1142578c0.5273438-2.1598511,0.9057617-7.4558105,1.0373535-9.5205078   C76.4705048,31.97052,76.7280731,32,77.0000458,32c0.5527344,0,1-0.4477539,1-1s-0.4472656-1-1-1   c-0.5422363,0-1.0727539-0.0289307-1.5820313-0.0817871c-0.0151367-0.0023193-0.0275879-0.0112915-0.0429688-0.0129395   c-7.1630859-0.7617188-11.5322227-6.4492188-11.5761681-6.5063477c-0.3769531-0.5009766-1.2207031-0.5009766-1.5976563,0   c-0.0107422,0.0141602-1.0986328,1.4423828-3.0507813,2.9482422c-0.2431641,0.1870117-0.5048828,0.3837891-0.7939453,0.5766602   c-0.4199219,0.2866211-0.8701172,0.5834961-1.3388672,0.855957l-0.1210938,0.0683594   c-0.1777344,0.1010742-0.3603516,0.2060547-0.5439453,0.2973633l-0.2226563,0.112793   c-0.1376953,0.0698242-0.2753906,0.1396484-0.4140625,0.2060547c-0.4257813,0.1992188-0.8720703,0.3886719-1.3203125,0.5566406   c-0.9761353,0.3582764-1.968689,0.6201172-2.9671631,0.7818604c-0.2615967,0.0371704-0.5307617,0.0747681-0.800415,0.102417   c-0.0151978,0.0015259-0.0273438,0.010498-0.0422974,0.0127563C50.075428,29.9711304,49.5435066,30,49.0000496,30   c-0.5527344,0-1,0.4477539-1,1s0.4472656,1,1,1c0.2709961,0,0.52771-0.0294189,0.7940063-0.0413818   c0.1427002,2.1903076,0.5235596,7.4023438,1.039978,9.5198975c0.1396484,1.1416016,0.6220703,2.2416992,1.3662109,3.1147461   c0.2087402,0.3372192,0.4421387,0.6766968,0.6865234,1.0162354c0.0693359,0.0963135,0.1417847,0.1916504,0.2136841,0.2879028   c0.1932983,0.258606,0.3949585,0.515625,0.6055908,0.7720337c0.0742188,0.090271,0.145813,0.1801758,0.2219238,0.2699585   c0.2824707,0.3331909,0.5747681,0.663269,0.8812256,0.9866333c0.0359497,0.0379639,0.0742188,0.0740967,0.1105347,0.1118774   c0.2729492,0.2844238,0.5540771,0.562439,0.8416748,0.8348999C55.8052254,48.9143066,55.8456306,48.9588013,55.889698,49   h-9.4296875v-1.2299805c0-0.5522461-0.4472656-1-1-1h-2.75C44.5605965,43.0302734,46.9375496,36.1503906,47.0000496,25.4101563z    M47.3076668,51.6923828h-0.8457031V51.230957h0.8457031c1.484375,0,2.6923828,1.2075195,2.6923828,2.6918945v3.3071289h-0.4619141   v-3.3071289C49.5381355,52.6928711,48.537159,51.6923828,47.3076668,51.6923828z M25.5400887,48.7700195h15.5h3.4199219V50   v1.6899414H25.5400887V48.7700195z M24.5381355,53.6923828c0.0042725,0,0.0078125-0.0023804,0.012085-0.0024414h20.8996582   c0.0042725,0.000061,0.0078125,0.0024414,0.012085,0.0024414h1.8457031c0.1269531,0,0.2304688,0.1035156,0.2304688,0.2304688   v3.3071289H22.4619637v-3.3071289c0-0.1269531,0.1035156-0.2304688,0.2304688-0.2304688H24.5381355z M20.0000496,53.9228516   c0-1.484375,1.2080078-2.6918945,2.6923828-2.6918945h0.8457031v0.4614258h-0.8457031   c-1.2294922,0-2.2304688,1.0004883-2.2304688,2.2304688v3.3071289h-0.4619141V53.9228516z M58.0000496,87.1499023   C58.0000496,87.6264648,57.6270027,88,57.1504402,88H12.849658c-0.4765625,0-0.8496094-0.3735352-0.8496094-0.8500977v-15.269043   c0.0088501,0.0109253,0.0193481,0.0203857,0.0281982,0.03125c0.1959839,0.2400513,0.4029541,0.4707031,0.6222534,0.68927   c0.0336914,0.0335693,0.0713501,0.0629272,0.1055908,0.0960083c0.1884766,0.1820068,0.3828125,0.357666,0.5864868,0.5228882   c0.0829468,0.0672607,0.1710815,0.1274414,0.2563477,0.1917725c0.1627808,0.1227417,0.3268433,0.2433472,0.4979248,0.3550415   c0.1015625,0.0663452,0.206604,0.1268311,0.3109741,0.1890869c0.1642456,0.0979614,0.3301392,0.1924438,0.5008545,0.2800903   c0.112915,0.0579224,0.2272949,0.1121216,0.3428345,0.1653442c0.1719971,0.0792236,0.3465576,0.1524658,0.5241089,0.2209473   c0.1190796,0.0458984,0.237977,0.0909424,0.359376,0.1318359c0.1851196,0.062439,0.3737183,0.1157837,0.5639648,0.1662598   c0.1192627,0.0316162,0.2371826,0.0655518,0.3583374,0.0923462c0.2107544,0.0466309,0.4256592,0.0804443,0.6416626,0.1119385   c0.1052856,0.0153809,0.2084961,0.0365601,0.3149414,0.0482178c0.3242188,0.0355225,0.6525879,0.0568237,0.986145,0.0568237h32   c0.3335571,0,0.6619263-0.0213013,0.986145-0.0568237c0.1064453-0.0116577,0.2096558-0.0328369,0.3149414-0.0482178   c0.2160034-0.0314941,0.4309082-0.0653076,0.6416626-0.1119385c0.1211548-0.0267944,0.2390747-0.06073,0.3583374-0.0923462   c0.1903076-0.0504761,0.3788452-0.1038208,0.5640259-0.1662598c0.1212769-0.0408936,0.2401123-0.0858765,0.3590698-0.1317139   c0.1777344-0.0685425,0.3525391-0.1418457,0.5246582-0.2211914c0.1154175-0.0531616,0.2296143-0.1072998,0.3424072-0.1651611   c0.1707764-0.0876465,0.336731-0.1821289,0.5009766-0.2801514c0.1043701-0.0622559,0.2094116-0.1227417,0.3109741-0.1890869   c0.1710815-0.1116943,0.335144-0.2322998,0.4979248-0.3550415c0.0852661-0.0643311,0.1734009-0.1245117,0.2563477-0.1917725   c0.2036743-0.1652222,0.3980103-0.3408813,0.5864868-0.5228882c0.0342407-0.0330811,0.0718994-0.062439,0.1055908-0.0960083   c0.2192993-0.2185669,0.4262695-0.4492188,0.6222534-0.68927c0.0088501-0.0108643,0.0193481-0.0203247,0.0281982-0.03125   V87.1499023z M58.0000496,63.2597656v2.9702148c0,3.8598633-3.140625,7-7,7h-32c-3.859376,0-7.000001-3.1401367-7.000001-7   v-5.5400391c0-0.8051758,0.6552734-1.4599609,1.4599609-1.4599609h5.5352182c0.001709,0,0.0031128,0.0009766,0.0048218,0.0009766   s0.0031128-0.0009766,0.0048218-0.0009766h2.4522705c0.001709,0,0.0031128,0.0009766,0.0048218,0.0009766   s0.0031128-0.0009766,0.0048218-0.0009766h27.0665283c0.001709,0,0.0031128,0.0009766,0.0048218,0.0009766   s0.0031128-0.0009766,0.0048218-0.0009766h2.4522705c0.001709,0,0.0031128,0.0009766,0.0048218,0.0009766   s0.0031128-0.0009766,0.0048218-0.0009766h5.125061h0.4101563c0.8046875,0,1.4599609,0.6547852,1.4599609,1.4599609V63.2597656z    M59.6739998,59.2455444c-0.0596313-0.1288452-0.1275024-0.2518311-0.2019043-0.371582   c-0.0346069-0.0557251-0.0663452-0.1124878-0.1040039-0.1660156c-0.1049805-0.149292-0.2205811-0.289978-0.347229-0.4207153   c-0.0147095-0.0151367-0.0264282-0.0328369-0.0413818-0.0477295c-0.1437378-0.1430664-0.3018188-0.2706909-0.468689-0.3869629   c-0.0496216-0.0346069-0.1030884-0.0625-0.154541-0.0945435c-0.12323-0.0765991-0.2496338-0.1469116-0.3825073-0.2078857   c-0.0653687-0.0300293-0.1315918-0.0563965-0.1990967-0.0823364c-0.0578003-0.0222168-0.1118774-0.0516357-0.1710815-0.0708008   l0.5517578-0.8271484l1.7929688,1.7924805l1.7926025,1.7926025l-1.72229,2.8704834l-0.0185547-0.0327148v-2.3027344   c0-0.2190552-0.0255737-0.4314575-0.0646362-0.6393433c-0.0123291-0.0654297-0.0316162-0.1275635-0.0476074-0.1916504   c-0.0352173-0.1417236-0.0767212-0.2799683-0.1288452-0.4142456   C59.7326546,59.3769531,59.7043343,59.3111572,59.6739998,59.2455444z M78.0000458,88v-5c0-0.5522461-0.4472656-1-1-1   s-1,0.4477539-1,1v5h-16.129879c0.0185547-0.0585938,0.0275269-0.1209106,0.0422363-0.1810913   c0.0122681-0.0504761,0.0258179-0.0997925,0.0353394-0.1512451c0.03125-0.1685791,0.0523071-0.3403931,0.0523071-0.5177612   V66.2299805V66c0.3505859,0,0.6767578-0.184082,0.8574219-0.4853516l2.1425781-3.5708008l2.1425743,3.5708008   c0.1381836,0.2304077,0.3619385,0.3904419,0.6161499,0.4538574c0.0414429,0.0109863,0.0825806,0.0110474,0.1241455,0.0162354   C65.9221039,65.9894409,65.9600067,66,66.0000458,66c0.0039063,0,0.0068359,0,0.0107422,0   c0.0491943-0.0005493,0.0958862-0.0130005,0.1436768-0.0205688c0.0379028-0.0060425,0.0773315-0.0061035,0.1140137-0.0162964   c0.0344849-0.0096436,0.0651245-0.0283203,0.0982666-0.0415039c0.0470581-0.0186768,0.0956421-0.0337524,0.1392212-0.0592651   c0.0158081-0.0092773,0.0282593-0.0234985,0.0435791-0.0336304c0.0563965-0.0373535,0.1121826-0.0759888,0.1602173-0.1243286   c0.0050049-0.0050049,0.0081787-0.0118408,0.0130615-0.0170288c0.0543213-0.0570068,0.104248-0.1188965,0.1444092-0.1888428   l3.3681641-5.8544922l9.8876953,4.3891602c3.65625,1.6313477,6.1435547,5.1196289,6.4912109,9.1035156L87.9092255,88H78.0000458z"/><path d="M78.0000458,74h-11c-0.5527344,0-1,0.4477539-1,1v3c0,0.5522461,0.4472656,1,1,1h11c0.5527344,0,1-0.4477539,1-1v-3   C79.0000458,74.4477539,78.5527802,74,78.0000458,74z M77.0000458,77h-9v-1h9V77z"/></g></svg>