<svg xmlns="http://www.w3.org/2000/svg" data-name="Layer 1" viewBox="0 0 512 512" x="0px" y="0px"><path d="M471.4,184c-1.82-47.59-28.12-90.12-67-108.36-71.46-33.5-133,18.32-148.36,33C240.77,93.73,179.87,41.72,107.6,75.6,68.72,93.84,42.42,136.37,40.6,184c-2,52,23,155.36,212.46,262.74l0,0a4.93,4.93,0,0,0,2.87.92,3.86,3.86,0,0,0,.6,0,4.92,4.92,0,0,0,2.24-.83C448.41,339.38,473.39,236,471.4,184ZM256,437.08C72.77,332.66,48.52,234,50.42,184.33c1.67-44,25.76-83.14,61.36-99.83a105,105,0,0,1,45-10.31c53.86,0,93.48,42.38,95.56,44.65a4.9,4.9,0,0,0,3.62,1.59h0a4.89,4.89,0,0,0,3.62-1.6c.65-.71,64.9-69.83,140.59-34.33,35.6,16.69,59.69,55.88,61.36,99.83C463.48,234,439.23,332.66,256,437.08Z"/><path d="M256,154.67a82.68,82.68,0,0,0-19.64,163v11.72h-25a4.91,4.91,0,0,0-4.91,4.91v29.47a4.91,4.91,0,0,0,4.91,4.91h25v20.06a4.91,4.91,0,0,0,4.91,4.92h29.47a4.91,4.91,0,0,0,4.91-4.92V368.67h25a4.91,4.91,0,0,0,4.91-4.91V334.29a4.91,4.91,0,0,0-4.91-4.91h-25V317.66a82.68,82.68,0,0,0-19.65-163Zm13.81,154.21a4.91,4.91,0,0,0-4,4.83v20.58a4.9,4.9,0,0,0,4.91,4.91h25v19.65h-25a4.91,4.91,0,0,0-4.91,4.91v20.06H246.18V363.76a4.91,4.91,0,0,0-4.91-4.91h-25V339.2h25a4.91,4.91,0,0,0,4.91-4.91V313.71a4.92,4.92,0,0,0-4-4.83,72.87,72.87,0,1,1,27.61,0Z"/><path d="M256,184.14a53.23,53.23,0,1,0,53.23,53.23A53.29,53.29,0,0,0,256,184.14Zm0,96.63a43.41,43.41,0,1,1,43.4-43.4A43.45,43.45,0,0,1,256,280.77Z"/></svg>