<svg xmlns="http://www.w3.org/2000/svg" data-name="Layer 1" viewBox="0 0 48 48" x="0px" y="0px"><path d="M19,32a4,4,0,0,0-3.35,1.83L14,21.46l-1-13a.5.5,0,0,0-1,0l-1,13L9.35,33.83a4,4,0,1,0,.57,2.93.46.46,0,0,0,.08-.19L10.47,33h1a.5.5,0,0,0,0-1h-.9l.68-5.06a.43.43,0,0,0,.22.06h2a.43.43,0,0,0,.22-.06L14.4,32h-.9a.5.5,0,0,0,0,1h1L15,36.57a.46.46,0,0,0,.08.19A4,4,0,1,0,19,32ZM6,39a3,3,0,1,1,3-3A3,3,0,0,1,6,39Zm7.5-13h-2l-.1,0,.6-4.48L12.5,15l.5,6.55L13.6,26ZM19,39a3,3,0,1,1,3-3A3,3,0,0,1,19,39Z"/><path d="M12.52,24h0a.5.5,0,0,0-.5.5.5.5,0,0,0,.51.5.5.5,0,0,0,0-1Z"/><path d="M27.59,8a.51.51,0,0,0-.56.31c-.12.33-3,8.14-3,12.18a.5.5,0,0,0,.5.5H25V39.5a.5.5,0,0,0,.5.5h2a.5.5,0,0,0,.5-.5V8.5A.49.49,0,0,0,27.59,8ZM27,11.48V20H25A40.19,40.19,0,0,1,27,11.48ZM27,39H26V21h1Z"/><path d="M36.5,22a.5.5,0,0,0-.5.5V33.38A4,4,0,1,0,37,36c0-.11,0-.22,0-.33a.51.51,0,0,0,0-.17v-13A.5.5,0,0,0,36.5,22ZM33,39a3,3,0,1,1,3-3A3,3,0,0,1,33,39Z"/><path d="M42,32a4,4,0,0,0-3,1.38V16.62l4-7.9a.5.5,0,0,0-.83-.55l-6,7a.52.52,0,0,0-.12.33v5a.47.47,0,0,0,.15.35L38,22.71V35.5a.51.51,0,0,0,0,.17c0,.11,0,.22,0,.33a4,4,0,1,0,4-4ZM37,20.29v-4.6l3.24-3.78-2.19,4.37a.54.54,0,0,0,0,.22v2.95a.5.5,0,0,0-.49-.45h0a.5.5,0,0,0-.5.5.5.5,0,0,0,.51.5.5.5,0,0,0,.49-.45v1.74ZM42,39a3,3,0,1,1,3-3A3,3,0,0,1,42,39Z"/></svg>