<svg xmlns="http://www.w3.org/2000/svg" xmlns:xlink="http://www.w3.org/1999/xlink" version="1.1" x="0px" y="0px" viewBox="0 0 100 100" enable-background="new 0 0 100 100" xml:space="preserve"><path d="M22.8,44.3c-0.5,0-0.9,0.4-0.9,0.9s0.4,0.9,0.9,0.9s0.9-0.4,0.9-0.9S23.3,44.3,22.8,44.3"/><path d="M35.5,44.3c-0.5,0-0.9,0.4-0.9,0.9s0.4,0.9,0.9,0.9c0.5,0,0.9-0.4,0.9-0.9S36,44.3,35.5,44.3"/><path d="M31.4,56.1c-0.2,0-0.5,0.1-0.7,0.1c-0.1,0-0.3,0-0.4,0l-0.2,0l-0.2,0c-1.1,0-2.2-0.1-3.1-0.3c-0.4-0.1-0.8-0.2-1-0.2  c-0.3-0.1-0.4-0.1-0.4-0.1s0.1,0.2,0.2,0.4c0.2,0.2,0.5,0.5,0.9,0.8c0.4,0.3,0.9,0.5,1.5,0.7c0.3,0.1,0.6,0.2,0.9,0.2  c0.3,0,0.6,0.1,0.9,0.1l0.2,0l0.3,0c0.2,0,0.3,0,0.5,0c0.4,0,0.7-0.1,1-0.2c0.6-0.2,1.1-0.5,1.5-0.9c0.4-0.3,0.6-0.7,0.8-0.9  c0.1-0.3,0.2-0.4,0.2-0.4s-0.6,0.3-1.4,0.6C32.3,55.9,31.9,56,31.4,56.1"/><path d="M64.6,71.5c-3.1,0.1-4.4-0.9-4.8-1.4c-0.3-0.3-0.3-0.5-0.4-0.6c1-0.7,1.7-1.7,1.7-3.3c0-2.1-0.1-3.3-0.8-4.1  c-0.7-0.7-1.8-0.7-3.5-0.7c-0.4,0-0.9,0-1.4,0c-5.3,0-5.8-6.3-5.8-20.7c0-0.2,0-0.3,0-0.5c0.2,0,0.4,0,0.6,0c2.4,0,4.5,0.3,4.5,4  v9.1h4.8v-1.6h-3.3v-7.5c0-5.6-4.2-5.6-6-5.6c-0.2,0-0.3,0-0.5,0c0.2-1.7,0.6-3.3,1.1-4.5c0.3,0.8,0.7,1.5,1.1,2  c2.3,2.2,6.8,2.3,10.8,2.3l2.1,0c1.6,0.9,1.4,14.8,1.4,20.1c0,1.4,0,2.6,0,3.5c0,2.5,1,4.3,2.8,5.3c0.2,1.1,0.5,1.9,1,2.4  C69.4,70.3,67.7,71.4,64.6,71.5 M59.4,69.5C59.4,69.5,59.4,69.5,59.4,69.5C59.4,69.5,59.4,69.5,59.4,69.5L59.4,69.5z M53.3,64.9  c-0.4,1.4-0.6,2.5-5.6,2.5c-1.7,0-2.5-0.8-2.9-1.5c0.4,0,0.7-0.2,0.9-0.3c1.2-0.8,1.4-2.7,1.4-3.8c0-3.4-0.1-7.4-0.3-11.2  c-0.3-7-0.5-14.2,0.2-16.5c0.9-2.6,2.5-3.6,3.5-4c-0.1,0.6-0.2,1.1-0.2,1.7c-1.5,2-2.3,5.2-2.3,8.8c0,11.6,0,20.3,5.3,22  C53.4,63.2,53.5,64.2,53.3,64.9 M56.7,26.5c1.7-0.4,3.6-0.6,5.4-0.6c3,0,12.7,0.7,12.7,9.8v25.6c0,1,0.2,1.7,0.5,2.2  c0.3,0.5,0.9,0.8,1.5,0.8c0.4,0,0.8-0.1,1.2-0.3c-0.1,0.4-0.2,0.8-0.5,1.2c-0.8,1-2.3,1.5-4.6,1.4c-3.5-0.1-5.2-1.6-5.2-4.7  c0-1,0-2.2,0-3.5C67.9,48,67.8,39.2,66,37.3c-0.4-0.4-0.8-0.5-1.1-0.5l-2.1,0c-4,0-8-0.2-9.8-1.9c-0.6-0.6-1.4-2.5-0.9-4.5  C52.5,28.5,54.1,27.1,56.7,26.5 M35.9,71.6c-2.4-0.3-4-1-4.6-1.6c1-0.7,1.5-1.8,1.5-3.9c0-2.1-0.1-3.3-0.8-4.1  c-0.7-0.7-1.8-0.7-3.5-0.7c-0.4,0-0.9,0-1.4,0c-5.3,0-5.8-6.3-5.8-20.7c0-0.2,0-0.3,0-0.5c0.2,0,0.4,0,0.6,0c2.4,0,4.5,0.3,4.5,4  v9.1h4.8v-1.6h-3.3v-7.5c0-5.6-4.2-5.6-6-5.6c-0.2,0-0.3,0-0.5,0c0.1-0.9,0.2-1.7,0.4-2.4c0.1,0,0.1,0,0.2,0.1  c1.5,0.5,5.5,1.7,16.2,0.5V46c0,0.4,0.3,0.8,0.7,0.8h2.2c0,8.1-0.2,17.9-0.2,18c0,0.1-0.3,2.8,1.1,4.6C41,70.2,38.8,72,35.9,71.6   M23.5,32.8c2.1-2.2,5.6-2.2,9.2-2.2l0.7,0c3.5,0,7.2,1.1,7.5,9.1c0.1,1.5,0.1,3.5,0.1,5.5h-1.4v-9.3c0-0.2-0.1-0.4-0.3-0.6  c-0.2-0.1-0.4-0.2-0.6-0.2c-11,1.3-15.1,0.1-16.4-0.3c0,0-0.1,0-0.1,0C22.6,34,23,33.3,23.5,32.8 M79.6,70.2c-1.3-0.6-3.2-0.9-6-0.9  c-1.9,0-2.6-0.4-3-1.4c0.7,0.2,1.4,0.3,2.2,0.3c0.2,0,0.3,0,0.5,0c2.5,0,4.3-0.7,5.3-2c1.2-1.7,0.8-3.7,0.8-3.8  c-0.1-0.3-0.2-0.5-0.5-0.6c-0.2-0.1-0.5,0-0.7,0.1c-0.3,0.2-1,0.7-1.4,0.7c-0.1,0-0.2,0-0.2-0.1c-0.1-0.1-0.2-0.5-0.2-1.3V35.7  c0-8.4-7.3-11.4-14.2-11.4c-1.9,0-3.9,0.2-5.8,0.7c-2.8,0.7-4.3,2-5.1,3.3c-0.9,0.1-4.2,0.9-5.7,5.2c-0.9,2.6-0.6,9.3-0.3,17.1  c0.1,3.8,0.3,7.7,0.3,11.1c0,1.2-0.3,2.2-0.7,2.5c-0.2,0.1-0.5,0.1-1-0.1c-0.2-0.1-0.5-0.1-0.8,0.1c-0.2,0.2-0.3,0.5-0.3,0.7  c0.2,1.4,1.4,4,4.8,4c5.2,0,6.4-1.2,7.1-3.7c0.2-0.8,0.2-1.7,0.1-2.3c0.2,0,0.3,0,0.5,0c0.5,0,1,0,1.4,0c1.3,0,2.2,0,2.4,0.2  c0.3,0.3,0.4,1.6,0.4,2.9c0,2.7-2.9,3.2-8.8,3.2c-0.8,0-1.6,0.1-2.3,0.3c-0.9-0.2-1.7-0.3-3.3-0.3c-1,0-1.7-0.3-2.2-0.9  c-1.1-1.3-0.8-3.5-0.8-3.6c0-0.2,0.4-17.5,0.1-25.3c-0.3-7.2-3.2-10.6-9-10.6l-0.7,0c-3.8,0-7.7,0-10.3,2.7c-1.8,1.9-2.7,4.8-2.7,9  c0,13,0,22.3,7.3,22.3c0.5,0,1,0,1.4,0c1.3,0,2.2,0,2.4,0.2c0.3,0.3,0.4,1.6,0.4,2.9c0,2.9-0.5,3.2-5.8,3.2c-4,0-6.1,2.5-6.4,7.6  v1.8h1.5l0-1.8c0.2-4.2,1.7-6.1,4.9-6.1c1.7,0,3.1,0,4.2-0.2c0.8,1.2,3.1,2.2,5.9,2.5c0.3,0,0.7,0.1,1,0.1c3.2,0,5.5-1.9,6.4-2.9  c0.6,0.4,1.4,0.5,2.3,0.5c0.5,0,0.9,0,1.2,0c-1.2,1.3-1.9,3.3-2.1,6v1.8H46l0-1.8c0.1-3.1,1-4.9,2.7-5.7l0.1-0.1  c0.6-0.2,1.3-0.4,2.1-0.4c2.4,0,5.2,0,7.2-0.7c0,0.1,0.1,0.2,0.1,0.4c0.3,0.6,1.7,2.5,5.9,2.5c0.2,0,0.3,0,0.5,0  c4.2-0.1,6.1-1.8,6.8-2.5c0.6,0.2,1.4,0.3,2.2,0.3c2.6,0,4.3,0.2,5.4,0.8l0.1,0c0,0,2.5,0.8,2.5,7.1h1.5  C83.2,71.7,80.2,70.4,79.6,70.2"/><path d="M51.1,44.2c-0.5,0-0.9,0.4-0.9,0.9s0.4,0.9,0.9,0.9c0.5,0,0.9-0.4,0.9-0.9S51.6,44.2,51.1,44.2"/><path d="M63.8,44.2c-0.5,0-0.9,0.4-0.9,0.9s0.4,0.9,0.9,0.9c0.5,0,0.9-0.4,0.9-0.9S64.3,44.2,63.8,44.2"/><path d="M59.7,56.1c-0.2,0-0.5,0.1-0.7,0.1c-0.1,0-0.3,0-0.4,0l-0.2,0l-0.2,0c-1.1,0-2.2-0.1-3.1-0.3c-0.4-0.1-0.8-0.2-1-0.2  c-0.3-0.1-0.4-0.1-0.4-0.1s0.1,0.2,0.2,0.4c0.2,0.2,0.5,0.5,0.9,0.8c0.4,0.3,0.9,0.5,1.5,0.7c0.3,0.1,0.6,0.2,0.9,0.2  c0.3,0,0.6,0.1,0.9,0.1l0.2,0l0.3,0c0.2,0,0.3,0,0.5,0c0.4,0,0.7-0.1,1-0.2c0.6-0.2,1.1-0.5,1.5-0.9c0.4-0.3,0.6-0.7,0.8-0.9  c0.1-0.3,0.2-0.4,0.2-0.4s-0.6,0.3-1.4,0.6C60.6,55.9,60.2,56,59.7,56.1"/></svg>