<svg xmlns="http://www.w3.org/2000/svg" data-name="Layer 75" viewBox="0 0 100 100" x="0px" y="0px"><path d="M80.72,9.14c-7-1-11.29,4.09-13,6.85-1.74-2.76-6-7.9-13-6.85a11.84,11.84,0,0,0-9.42,7.44C43,22,43.9,29,47.56,34.1c6.73,9.31,19.13,16.2,19.65,16.49a1,1,0,0,0,.48.12,1,1,0,0,0,.48-.12c.53-.29,12.93-7.18,19.66-16.49h0C91.49,29,92.42,22,90.14,16.58A11.86,11.86,0,0,0,80.72,9.14Zm5.49,23.79c-5.74,7.93-16.16,14.26-18.52,15.63-2.36-1.37-12.77-7.69-18.51-15.63a16.57,16.57,0,0,1-2.09-15.57A9.91,9.91,0,0,1,55,11.12,10.41,10.41,0,0,1,56.51,11c6.9,0,10.12,7.12,10.27,7.45a1,1,0,0,0,1.83,0c.15-.35,3.84-8.51,11.82-7.33a9.9,9.9,0,0,1,7.86,6.24A16.59,16.59,0,0,1,86.21,32.93Z"/><path d="M88.25,60.53a5.35,5.35,0,0,0-6.12.65l-11.54,10c-5.1,1.38-7.2.61-11.33-.92L59,70.22l6.14-.11h.15a4.8,4.8,0,0,0,.06-9.46C64,60.4,62.11,60,59.92,59.48c-6-1.34-13.37-3-17.65-2.72C37.63,57.07,29.48,63,26,65.63v-2.1a1,1,0,0,0-1-1H10a1,1,0,0,0-1,1V90a1,1,0,0,0,1,1H25a1,1,0,0,0,1-1V87.07c2.78-.29,11.25-1.15,13.16-1.15.63,0,2.1.21,3.8.46a87.64,87.64,0,0,0,12.09,1.15,27.93,27.93,0,0,0,3.74-.23c6.87-.92,16.68-5.51,17.1-5.7a1.1,1.1,0,0,0,.26-.18L89.58,68.83a5.35,5.35,0,0,0-1.33-8.3ZM24,67.7V89H11V64.53H24Zm64.16-.28L74.9,79.85c-1.24.57-10.24,4.65-16.38,5.47-4.63.62-11-.31-15.27-.92a37.21,37.21,0,0,0-4.09-.48c-2,0-10.15.83-13.16,1.14V68.17c3.48-2.79,12.2-9.14,16.4-9.41,4-.26,11.56,1.43,17.08,2.67,2.21.5,4.12.93,5.55,1.18a2.8,2.8,0,0,1,0,5.5l-11.85.21a1,1,0,0,0-1,.87A1,1,0,0,0,53,70.28c2.28.67,4.06,1.32,5.62,1.9,4.3,1.59,6.9,2.55,12.77.91a1,1,0,0,0,.39-.21L83.44,62.69a3.34,3.34,0,0,1,5.52,2A3.32,3.32,0,0,1,88.16,67.42Z"/></svg>