<svg xmlns="http://www.w3.org/2000/svg" xmlns:xlink="http://www.w3.org/1999/xlink" version="1.1" x="0px" y="0px" viewBox="0 0 81.776 81.776" style="enable-background:new 0 0 81.776 77.538;" xml:space="preserve"><g><g><path style="" d="M24.95,48.582c-2.952,0-5.354,2.402-5.354,5.355s2.402,5.355,5.354,5.355    c2.953,0,5.355-2.402,5.355-5.355S27.903,48.582,24.95,48.582z M24.95,57.814c-2.138,0-3.877-1.738-3.877-3.877    s1.74-3.878,3.877-3.878c2.139,0,3.878,1.739,3.878,3.878S27.089,57.814,24.95,57.814z" fill="#010002"/><path style="" d="M65.838,66.169c-1.922,0-3.485,1.563-3.485,3.487c0,1.922,1.563,3.485,3.485,3.485    c1.924,0,3.487-1.563,3.487-3.485C69.325,67.732,67.762,66.169,65.838,66.169z M65.838,71.665c-1.107,0-2.009-0.901-2.009-2.009    c0-1.109,0.901-2.011,2.009-2.011c1.109,0,2.01,0.901,2.01,2.011C67.848,70.764,66.947,71.665,65.838,71.665z" fill="#010002"/><path style="" d="M73.906,68.917c-0.451-7.65-8.344-7.257-8.344-7.257L54.426,20.004H17.529L12.671,0H0v1.478h11.509    l7.33,30.177C8.874,34.106,1.459,43.116,1.459,53.827c0,12.589,10.241,22.831,22.832,22.831c12.452,0,22.607-10.021,22.826-22.422    h14.875l2.137,7.775c-3.417,0.863-5.953,3.962-5.953,7.645c0,4.346,3.535,7.882,7.883,7.882c4.098,0,7.474-3.144,7.848-7.144h7.87    v-1.478H73.906z M18.757,25.06l-0.87-3.58h35.403l0.957,3.58H18.757z M24.292,75.182c-11.775,0-21.355-9.58-21.355-21.354    c0-11.775,9.58-21.354,21.355-21.354c11.774,0,21.355,9.579,21.355,21.354C45.646,65.602,36.066,75.182,24.292,75.182z     M47.098,52.76c-0.561-12.096-10.575-21.765-22.806-21.765c-1.419,0-4.009,0.345-4.009,0.345l-1.167-4.803h35.527l7.012,26.223    H47.098z M66.059,76.062c-3.533,0-6.406-2.874-6.406-6.405c0-3.533,2.873-6.408,6.406-6.408s6.406,2.875,6.406,6.408    C72.465,73.188,69.592,76.062,66.059,76.062z" fill="#000"/></g></g></svg>