<svg xmlns="http://www.w3.org/2000/svg" data-name="Layer 1" viewBox="0 0 100 100" x="0px" y="0px"><path d="M74.75,70.07C74.62,70,61.66,62.5,64.64,49.33h0c.38-1.88.66-3.73.86-5.52a4,4,0,0,0,3.25-4.11,4,4,0,0,0-3-4.09C64.9,24.25,58.83,18,48.54,18c-5.67,0-10.05,1.83-13,5.44S31,32.73,31.26,39.73c0,.08,0,.16,0,.24a.67.67,0,0,0,0,.2c0,1.06.12,2.15.24,3.28-1,2.05-9.29,19.47-5.73,28.23a8.45,8.45,0,0,0,.82,1.55,8.9,8.9,0,0,0-.12,1.39v6.69a.68.68,0,0,0,.68.68H69.9a.68.68,0,0,0,.68-.68V74.63a8.89,8.89,0,0,0-.25-2.09c2.4-.63,4.06-1.15,4.28-1.22a.68.68,0,0,0,.13-1.25ZM32.62,39.79A4.73,4.73,0,0,1,34,36.86a39.74,39.74,0,0,0-1.14,6C32.72,41.79,32.66,40.78,32.62,39.79ZM34.89,52c-2.22-6.45.45-15.14,1-16.71,2.94-1.9,7.56-3.16,12.67-3.16s9.67,1.18,12.65,3.12c.13.39.43,1.32.75,2.59l0,.07,0,.07-.05.13a4.6,4.6,0,0,0-.15.57s0,.08,0,.12v.07a4.86,4.86,0,0,0-.07.8,4.75,4.75,0,0,0,0,.62c0,.08,0,.16,0,.24s0,.24.08.35,0,.18.08.27.07.2.11.3.07.16.1.24a4.3,4.3,0,0,0,.23.41l0,.08a4,4,0,0,0,.37.47l0,0,.17.18A21,21,0,0,1,62.18,52c-2.52,5.41-7.58,10.3-13.64,10.3S37.41,57.42,34.89,52ZM67.38,39.68a2.56,2.56,0,0,1-2.23,2.79,1.78,1.78,0,0,1-.2,0,2,2,0,0,1-1-.47l-.16-.15a2.54,2.54,0,0,1-.22-.25,2.76,2.76,0,0,1-.2-.31,3,3,0,0,1-.16-.32,3.17,3.17,0,0,1-.14-.4c0-.07,0-.14-.05-.21a3.41,3.41,0,0,1-.07-.65A3.36,3.36,0,0,1,63,39l0-.18a3.1,3.1,0,0,1,.19-.52l0-.1a2.74,2.74,0,0,1,.37-.54l0,0a2.37,2.37,0,0,1,.49-.42,1.85,1.85,0,0,1,.94-.3h0A2.56,2.56,0,0,1,67.38,39.68ZM36.59,24.31c2.68-3.28,6.7-4.94,11.95-4.94,12,0,15.27,8.7,15.83,16.26l-.18.06c-.73-1.65-3.11-5.58-9.5-6.63a.68.68,0,1,0-.22,1.35,11.71,11.71,0,0,1,6.65,3.21,26.53,26.53,0,0,0-12.58-2.86c-6.81,0-12.57,2-15.41,5,3.82-9.11,21.77-7.39,22-7.37A.68.68,0,0,0,55.23,27c-.77-.08-16.67-1.61-22.26,6.2A18.23,18.23,0,0,1,36.59,24.31ZM69.21,74.63v6H65.95v-3a.68.68,0,0,0-1.37,0v3H32.49v-3a.68.68,0,1,0-1.37,0v3H27.86v-6a7.58,7.58,0,0,0,2.52,1.45,5.93,5.93,0,0,0,2,.31,19.74,19.74,0,0,0,6.16-1.5c3.45-1.22,7-2.49,10-.8,4.1,2.29,14.07.36,20.43-1.23A7.5,7.5,0,0,1,69.21,74.63Zm-20-1.71c-3.56-2-7.6-.56-11.17.7-2.72,1-5.28,1.87-7.23,1.19a6,6,0,0,1-3.77-3.64c-2.78-6.83,2.51-20,4.8-25.17.16,1.08.35,2.18.58,3.31v0s0,0,0,0a21,21,0,0,0,1.17,3.13l0,.08a.67.67,0,0,0,.09.16c2.75,5.77,8.23,11,14.82,11,6.2,0,11.42-4.6,14.3-9.95.25,8.88,7.08,14.65,10,16.69C68.26,71.74,53.93,75.54,49.22,72.91Z"/><path d="M63.31,39.68a1.86,1.86,0,1,0,1.85-2.07A2,2,0,0,0,63.31,39.68Zm2.33,0c0,.41-.25.7-.48.7s-.48-.29-.48-.7.25-.7.48-.7S65.63,39.27,65.63,39.68Z"/><path d="M40.4,66.72a.69.69,0,0,0-.8.54.68.68,0,0,0,.54.8c3.64.72,9.78,2.36,10.75,3.7A.68.68,0,0,0,52,71C50.44,68.79,42.07,67,40.4,66.72Z"/></svg>